<svg width="1148" height="293" viewBox="0 0 1148 293" fill="none" xmlns="http://www.w3.org/2000/svg">
<path d="M0 0H121.044V41.8572H45.7553V123.479H104.821V165.336H45.7553V293H0V0Z" fill="black"/>
<path d="M164.937 0H226.914L274.334 293H228.578L220.259 234.819V235.656H168.264L159.945 293H117.518L164.937 0ZM214.852 195.891L194.47 51.0657H193.638L173.672 195.891H214.852Z" fill="black"/>
<path d="M296.532 0H364.333C387.904 0 405.097 5.58095 415.912 16.7429C426.727 27.6257 432.134 44.5081 432.134 67.39V85.3886C432.134 115.805 422.151 135.059 402.185 143.151V143.989C413.277 147.337 421.042 154.174 425.479 164.499C430.193 174.823 432.55 188.636 432.55 205.937V257.421C432.55 265.793 432.827 272.63 433.382 277.931C433.937 282.954 435.323 287.977 437.542 293H390.954C389.291 288.256 388.181 283.791 387.627 279.606C387.072 275.42 386.795 267.886 386.795 257.003V203.426C386.795 190.031 384.576 180.683 380.14 175.381C375.98 170.08 368.631 167.429 358.094 167.429H342.287V293H296.532V0ZM358.926 125.571C368.077 125.571 374.871 123.2 379.308 118.456C384.022 113.712 386.379 105.759 386.379 94.5971V71.9943C386.379 61.3905 384.438 53.7167 380.555 48.9729C376.951 44.2291 371.127 41.8572 363.085 41.8572H342.287V125.571H358.926Z" fill="black"/>
<path d="M464.296 0H529.601L558.718 209.704H559.55L588.667 0H653.973V293H610.713V71.1571H609.881L576.605 293H538.337L505.06 71.1571H504.228V293H464.296V0Z" fill="black"/>
<path d="M688.117 0H812.904V41.8572H733.872V119.293H796.682V161.15H733.872V251.143H812.904V293H688.117V0Z" fill="black"/>
<path d="M839.226 0H907.028C930.598 0 947.791 5.58095 958.606 16.7429C969.421 27.6257 974.829 44.5081 974.829 67.39V85.3886C974.829 115.805 964.846 135.059 944.88 143.151V143.989C955.972 147.337 963.736 154.174 968.173 164.499C972.887 174.823 975.244 188.636 975.244 205.937V257.421C975.244 265.793 975.522 272.63 976.076 277.931C976.631 282.954 978.018 287.977 980.236 293H933.649C931.985 288.256 930.876 283.791 930.321 279.606C929.766 275.42 929.489 267.886 929.489 257.003V203.426C929.489 190.031 927.271 180.683 922.834 175.381C918.674 170.08 911.326 167.429 900.788 167.429H884.982V293H839.226V0ZM901.62 125.571C910.771 125.571 917.565 123.2 922.002 118.456C926.716 113.712 929.073 105.759 929.073 94.5971V71.9943C929.073 61.3905 927.132 53.7167 923.25 48.9729C919.645 44.2291 913.821 41.8572 905.78 41.8572H884.982V125.571H901.62Z" fill="black"/>
<path d="M1006.99 0H1074.79C1098.36 0 1115.56 5.58095 1126.37 16.7429C1137.19 27.6257 1142.59 44.5081 1142.59 67.39V85.3886C1142.59 115.805 1132.61 135.059 1112.64 143.151V143.989C1123.74 147.337 1131.5 154.174 1135.94 164.499C1140.65 174.823 1143.01 188.636 1143.01 205.937V257.421C1143.01 265.793 1143.29 272.63 1143.84 277.931C1144.4 282.954 1145.78 287.977 1148 293H1101.41C1099.75 288.256 1098.64 283.791 1098.09 279.606C1097.53 275.42 1097.25 267.886 1097.25 257.003V203.426C1097.25 190.031 1095.03 180.683 1090.6 175.381C1086.44 170.08 1079.09 167.429 1068.55 167.429H1052.75V293H1006.99V0ZM1069.38 125.571C1078.54 125.571 1085.33 123.2 1089.77 118.456C1094.48 113.712 1096.84 105.759 1096.84 94.5971V71.9943C1096.84 61.3905 1094.9 53.7167 1091.01 48.9729C1087.41 44.2291 1081.59 41.8572 1073.54 41.8572H1052.75V125.571H1069.38Z" fill="black"/>
</svg>
